<svg width="64" height="76" viewBox="0 0 64 76" fill="none" xmlns="http://www.w3.org/2000/svg">
<path fill-rule="evenodd" clip-rule="evenodd" d="M5.33333 26.946V38H0V2.7L2.66667 0H26.24L28.5867 1.35L30.88 5.4H61.3333L64 8.1V16.5L58.6667 16.5V10.8H29.3333L27.04 9.45L24.7467 5.4H5.33333V21.546H10.6667V26.946H5.33333ZM21.3337 21.4999H16.0004V26.8999H21.3337V21.4999ZM0.000495899 61.1499V44.1081H5.33379V49.9179C6.573 49.3403 7.91653 49.0278 9.28042 48.9999H58.6667V21.6H64V67.8999L61.3334 70.5999H37.3335V65.1999H58.6667V54.3999H9.28042C8.74827 54.3982 8.22158 54.5085 7.73377 54.7239C6.7682 55.1294 6.00097 55.9062 5.60045 56.8839C5.43004 57.3882 5.34003 57.9168 5.33379 58.4499V61.1499C5.34003 61.6829 5.43004 62.2115 5.60045 62.7159C6.00097 63.6935 6.7682 64.4703 7.73377 64.8759C8.22158 65.0912 8.74827 65.2015 9.28042 65.1999H10.6671V70.5999H9.28042C8.05724 70.5862 6.84661 70.3483 5.70712 69.8979C3.43813 68.9169 1.63862 67.0755 0.693824 64.7679C0.223538 63.6217 -0.0123239 62.3909 0.000495899 61.1499ZM21.3337 32.7999H16.0004V38.1999H21.3337V32.7999ZM24.0003 67.8459L17.4937 75.9999H16.0004V59.7999H32.0002V75.9999H30.5069L24.0003 67.8459ZM52 32.7999H26.6667V38.1999H52V32.7999ZM26.6667 21.6H52V27H26.6667V21.6Z" fill="#424242"/>
</svg>
