<svg width="18" height="18" viewBox="0 0 18 18" fill="none" xmlns="http://www.w3.org/2000/svg">
<path fill-rule="evenodd" clip-rule="evenodd" d="M6.68306 3.18102C4.46418 4.16868 2.91716 6.39283 2.91716 8.97831C2.91716 12.4812 5.7568 15.3208 9.25967 15.3208C12.7625 15.3208 15.6022 12.4812 15.6022 8.97831C15.6022 6.15082 13.752 3.75547 11.1963 2.93689L10.8767 3.94482C13.0048 4.62793 14.5451 6.62325 14.5451 8.97831C14.5451 11.8974 12.1787 14.2637 9.25967 14.2637C6.34061 14.2637 3.97425 11.8974 3.97425 8.97831C3.97425 7.19294 4.85947 5.61432 6.21495 4.65743L6.68306 3.18102Z" fill="#C5C5C5"/>
<path fill-rule="evenodd" clip-rule="evenodd" d="M6.08842 3.69286H2.91716V2.63577H6.61696L7.1455 3.16432V6.86411H6.08842V3.69286Z" fill="#C5C5C5"/>
</svg>
