<svg width="23" height="24" viewBox="0 0 23 24" fill="none" xmlns="http://www.w3.org/2000/svg">
<path d="M14.25 1.02546e-06C12.6605 -0.000791296 11.1046 0.457574 9.76941 1.32007C8.43422 2.18256 7.37657 3.4124 6.72375 4.8617C6.07094 6.31099 5.85077 7.91801 6.0896 9.4895C6.32843 11.061 7.01604 12.5301 8.06995 13.72L0 22.88L1.12 23.88L9.17004 14.76C10.2055 15.5693 11.4192 16.1196 12.7103 16.365C14.0014 16.6104 15.3325 16.5437 16.5927 16.1707C17.8528 15.7976 19.0055 15.1288 19.955 14.2201C20.9044 13.3114 21.623 12.1891 22.0509 10.9465C22.4789 9.70396 22.6038 8.37703 22.4153 7.07642C22.2267 5.77581 21.7302 4.53915 20.967 3.46924C20.2039 2.39933 19.1962 1.52711 18.0278 0.925416C16.8595 0.323719 15.5642 0.00991516 14.25 0.0100108V1.02546e-06ZM14.25 15C12.915 15 11.6099 14.6041 10.4999 13.8624C9.38985 13.1207 8.52469 12.0665 8.01379 10.8331C7.5029 9.59973 7.36919 8.24248 7.62964 6.93311C7.89009 5.62373 8.53305 4.42106 9.47705 3.47705C10.4211 2.53305 11.6237 1.89009 12.9331 1.62964C14.2425 1.36919 15.5997 1.5029 16.8331 2.01379C18.0665 2.52469 19.1207 3.38985 19.8624 4.49988C20.6041 5.60991 21 6.91498 21 8.25C21 10.0402 20.2888 11.7571 19.0229 13.023C17.7571 14.2888 16.0402 15 14.25 15Z" fill="#C5C5C5"/>
</svg>
